<?xml version="1.0" encoding="UTF-8" standalone="no"?>
<!-- Created with Inkscape (http://www.inkscape.org/) -->

<svg
   xmlns:dc="http://purl.org/dc/elements/1.1/"
   xmlns:cc="http://creativecommons.org/ns#"
   xmlns:rdf="http://www.w3.org/1999/02/22-rdf-syntax-ns#"
   xmlns:svg="http://www.w3.org/2000/svg"
   xmlns="http://www.w3.org/2000/svg"
   xmlns:sodipodi="http://sodipodi.sourceforge.net/DTD/sodipodi-0.dtd"
   xmlns:inkscape="http://www.inkscape.org/namespaces/inkscape"
   width="512"
   height="512"
   viewBox="0 0 135.46666 135.46666"
   version="1.1"
   id="svg8"
   sodipodi:docname="BatMon Small.svg"
   inkscape:version="0.92.2 (5c3e80d, 2017-08-06)"
   inkscape:export-filename="C:\Users\pvarney.VSHED\Desktop\BatMon\BatMon 192.png"
   inkscape:export-xdpi="36.000004"
   inkscape:export-ydpi="36.000004">
  <defs
     id="defs2" />
  <sodipodi:namedview
     id="base"
     pagecolor="#ffffff"
     bordercolor="#666666"
     borderopacity="1.0"
     inkscape:pageopacity="0.0"
     inkscape:pageshadow="2"
     inkscape:zoom="1.6714571"
     inkscape:cx="271.03037"
     inkscape:cy="237.58455"
     inkscape:document-units="mm"
     inkscape:current-layer="layer1"
     showgrid="false"
     units="px"
     inkscape:window-width="1920"
     inkscape:window-height="1001"
     inkscape:window-x="-9"
     inkscape:window-y="-9"
     inkscape:window-maximized="1" />
  <metadata
     id="metadata5">
    <rdf:RDF>
      <cc:Work
         rdf:about="">
        <dc:format>image/svg+xml</dc:format>
        <dc:type
           rdf:resource="http://purl.org/dc/dcmitype/StillImage" />
        <dc:title />
      </cc:Work>
    </rdf:RDF>
  </metadata>
  <g
     inkscape:label="Layer 1"
     inkscape:groupmode="layer"
     id="layer1"
     transform="translate(0,-161.53335)">
    <g
       id="g15"
       transform="matrix(1.4052384,0,0,2.1936359,-27.820008,-235.91862)">
      <path
         style="fill:#000000;stroke-width:9.6443882"
         inkscape:connector-curvature="0"
         d="m 55.948372,181.18411 c -3.37378,0 -6.506871,0.77314 -8.675827,2.16186 -2.168731,1.38871 -3.373783,3.39652 -3.373783,5.55779 0,2.16187 2.168729,3.70522 3.373783,5.55783 0.359784,0.46388 0.359784,1.2341 0.359784,2.16186 H 19.797358 v 46.31506 h 27.834971 c 0,-0.92776 -0.118414,-1.69799 -0.359784,-2.16185 -1.205054,-1.85262 -3.373783,-3.39625 -3.373783,-5.55781 0,-2.16185 1.205052,-4.16822 3.373783,-5.55782 2.168729,-1.38873 5.301909,-2.16185 8.675827,-2.16185 3.37378,0 6.506871,0.77312 8.675827,2.16185 2.16873,1.38874 3.373782,3.39655 3.373782,5.55782 0,2.16186 -2.169184,3.70519 -3.373782,5.55781 -0.359786,0.46386 -0.359786,1.23409 -0.359786,2.16185 h 27.834926 v -17.83138 c 1.445972,0 2.651024,0.0876 3.373781,0.23339 2.891944,0.77023 5.30193,2.16186 8.67583,2.16186 3.3738,0 6.50688,-0.77312 8.67584,-2.16186 2.16873,-1.38871 3.37377,-3.39653 3.37377,-5.5578 0,-2.16185 -1.20504,-4.16851 -3.37377,-5.5578 -2.16919,-1.38872 -5.30186,-2.16186 -8.67584,-2.16186 -3.37378,0 -5.783886,1.38873 -8.67583,2.16186 -0.723212,0.2334 -1.927809,0.2334 -3.373781,0.2334 V 196.62724 H 64.264413 c 0,-0.92776 0.118415,-1.69799 0.359786,-2.16185 1.205053,-1.85261 3.373782,-3.39626 3.373782,-5.55783 0,-2.16185 -1.205052,-4.1682 -3.373782,-5.55781 -2.168729,-1.38872 -5.301909,-2.16185 -8.675827,-2.16185 z"
         id="path4515" />
      <path
         style="fill:#ff0000;stroke-width:4.75384665"
         inkscape:connector-curvature="0"
         d="m 47.493529,203.13605 -3.672979,4.42446 -6.095589,7.40309 -0.233338,-0.17377 -0.703264,-0.98368 H 22.096416 v 2.89187 h 9.065247 l 2.969625,3.35441 3.672979,4.25099 3.673007,-4.33775 6.095588,-7.22944 6.095592,7.22944 3.204085,3.8751 4.141872,-3.70153 4.61076,-4.25099 1.016055,0.80989 h 18.052335 v -2.89188 H 71.486449 l -2.969656,-2.16833 -3.907441,-2.80498 -3.204085,2.97853 -3.672979,3.4412 -6.564481,-7.69217 z"
         id="path4526" />
      <path
         inkscape:connector-curvature="0"
         id="path4537"
         d="m 83.382357,206.43369 c -2.397119,0 -4.532735,0.9233 -6.145353,2.36715 -1.569033,1.44522 -2.571295,3.4107 -2.571295,5.65772 0,2.2068 1.002196,4.17271 2.571295,5.65722 l 14.862503,13.68208 v -8.69053 c 1.445971,0 2.650848,0.0873 3.373605,0.23304 1.489462,0.39668 2.851849,0.95751 4.283157,1.40885 l 7.205241,-6.63344 c 1.56904,-1.44523 2.57131,-3.41023 2.57131,-5.65722 0,-0.59741 -0.0757,-1.1766 -0.21399,-1.73395 -1.57522,-0.43144 -3.33597,-0.6618 -5.16965,-0.6618 -3.37378,0 -5.784126,1.38909 -8.676068,2.16223 -0.723212,0.23339 -1.927634,0.23352 -3.373605,0.23352 0,-2.20681 -1.0027,-4.17321 -2.571798,-5.65772 -1.569035,-1.44371 -3.704632,-2.36715 -6.145352,-2.36715 z"
         style="fill:#ff0000;stroke-width:4.18183327" />
    </g>
  </g>
</svg>
